#!OML:ASF F:\VICON\USERDATA\INSTALL\rory3\rory3.ASF
:FULLY-SPECIFIED
:DEGREES
265
root -0.00169716 17.9957 -1.10469 1.85028 -7.89787 1.28005
lowerback -1.22348 -0.617567 -3.58982
upperback 0.0797053 -0.784721 1.68971
thorax 0.840224 -0.412469 3.7376
lowerneck -17.9102 -0.643248 -8.7993
upperneck 30.2901 0.872309 3.22995
head 13.1006 -0.217018 2.91497
rclavicle 1.86733e-014 2.38542e-015
rhumerus -6.95935 47.3001 -72.8394
rradius 118.114
rwrist 39.9093
rhand 7.20919 18.7169
rfingers 7.12502
rthumb 32.4748 -8.39265
lclavicle 1.86733e-014 2.38542e-015
lhumerus -34.3975 -26.5395 101.339
lradius 85.9064
lwrist 6.27715
lhand -17.8648 20.435
lfingers 7.12502
lthumb 8.4008 50.2479
rfemur -7.88063 7.05648 14.9694
rtibia 24.6499
rfoot -15.9061 -3.79065
rtoes 5.2849
lfemur -0.971866 -1.92222 -21.4474
ltibia 13.5851
lfoot -10.4006 3.50343
ltoes -11.6801
266
root -0.00207303 17.9967 -1.1054 1.94103 -7.91007 1.29917
lowerback -1.46229 -0.61489 -3.54639
upperback 0.148864 -0.773104 1.62091
thorax 1.04265 -0.411668 3.63935
lowerneck -17.8943 -0.651262 -8.77277
upperneck 30.1729 0.830243 3.28845
head 13.0501 -0.220558 2.92343
rclavicle 3.41661e-015 -1.15295e-014
rhumerus -6.738 47.1297 -72.786
rradius 118.19
rwrist 39.853
rhand 7.23959 18.8979
rfingers 7.12502
rthumb 32.5037 -8.20574
lclavicle 3.41661e-015 -1.15295e-014
lhumerus -34.2614 -26.6094 101.175
lradius 85.9257
lwrist 6.26766
lhand -17.8543 20.3986
lfingers 7.12502
lthumb 8.41093 50.2111
rfemur -8.00989 7.0183 14.9264
rtibia 24.6658
rfoot -15.8794 -3.74683
rtoes 5.45068
lfemur -1.10846 -1.95562 -21.4712
ltibia 13.6583
lfoot -10.3982 3.55005
ltoes -11.9101
267
root -0.0035286 17.9947 -1.10537 1.9332 -7.92578 1.29169
lowerback -1.65974 -0.614368 -3.46586
upperback 0.263071 -0.766035 1.54107
thorax 1.26797 -0.413851 3.50896
lowerneck -17.8478 -0.656393 -8.75067
upperneck 30.0166 0.776993 3.38806
head 12.9772 -0.22287 2.94556
rclavicle 1.6524e-014 -1.23246e-014
rhumerus -6.50197 46.8606 -72.7597
rradius 118.337
rwrist 39.7444
rhand 7.65486 19.7863
rfingers 7.12502
rthumb 32.8988 -7.23526
lclavicle 1.6524e-014 -1.23246e-014
lhumerus -34.0927 -26.7064 100.975
lradius 85.9515
lwrist 6.32113
lhand -17.8003 20.5129
lfingers 7.12502
lthumb 8.46302 50.3233
rfemur -8.01556 7.0158 14.9419
rtibia 24.6791
rfoot -15.8604 -3.78035
rtoes 4.98067
lfemur -1.14149 -1.91267 -21.452
ltibia 13.7374
lfoot -10.443 3.50711
ltoes -11.8514
268
root -0.00496631 17.9924 -1.10206 1.89293 -8.00248 1.29339
lowerback -1.78889 -0.597254 -3.43945
upperback 0.333763 -0.738762 1.50441
thorax 1.40991 -0.403862 3.45543
lowerneck -17.8272 -0.65232 -8.74766
upperneck 29.9638 0.771648 3.41209
head 12.9509 -0.219986 2.95194
rclavicle 9.67833e-015 6.75868e-015
rhumerus -6.39192 46.7223 -72.7219
rradius 118.441
rwrist 39.6521
rhand 7.57903 20.3989
rfingers 7.12502
rthumb 32.8267 -6.63775
lclavicle 9.67833e-015 6.75868e-015
lhumerus -34.0013 -26.662 100.857
lradius 85.9748
lwrist 6.57092
lhand -17.6937 20.386
lfingers 7.12502
lthumb 8.56592 50.1923
rfemur -7.99208 7.03412 14.9496
rtibia 24.7042
rfoot -15.8161 -3.78548
rtoes 4.34588
lfemur -1.10779 -1.9468 -21.4592
ltibia 13.7811
lfoot -10.4925 3.60047
ltoes -11.6495
269
root -0.00700164 17.9907 -1.10037 1.85183 -8.05504 1.22279
lowerback -1.8211 -0.585812 -3.37818
upperback 0.366206 -0.723709 1.50458
thorax 1.45924 -0.39733 3.42108
lowerneck -17.8025 -0.647465 -8.71998
upperneck 29.9412 0.768313 3.40726
head 12.9364 -0.218335 2.94386
rclavicle 2.34566e-014 1.07344e-014
rhumerus -6.33494 46.6428 -72.7488
rradius 118.405
rwrist 39.7072
rhand 7.18848 20.5665
rfingers 7.12502
rthumb 32.4551 -6.54716
lclavicle 2.34566e-014 1.07344e-014
lhumerus -33.9758 -26.5628 100.767
lradius 86.0575
lwrist 6.8313
lhand -17.3481 20.3144
lfingers 7.12502
lthumb 8.89947 50.1067
rfemur -7.95335 7.1212 15.0357
rtibia 24.7216
rfoot -15.8565 -3.7412
rtoes 4.89517
lfemur -1.0621 -1.98042 -21.384
ltibia 13.8136
lfoot -10.5411 3.68671
ltoes -11.5063
270
root -0.00720267 17.9888 -1.09858 1.82107 -8.02399 1.23931
lowerback -1.86659 -0.598678 -3.38138
upperback 0.386745 -0.738965 1.48385
thorax 1.50695 -0.406155 3.40045
lowerneck -17.7526 -0.653852 -8.71764
upperneck 29.9157 0.742603 3.43801
head 12.9167 -0.224567 2.9502
rclavicle 1.61016e-014 -1.39149e-014
rhumerus -6.24941 46.446 -72.715
rradius 118.324
rwrist 39.762
rhand 6.87182 21.4012
rfingers 7.12502
rthumb 32.1537 -5.77383
lclavicle 1.61016e-014 -1.39149e-014
lhumerus -33.9715 -26.497 100.73
lradius 86.1563
lwrist 6.86591
lhand -17.1002 20.1791
lfingers 7.12502
lthumb 9.1387 49.9611
rfemur -7.90763 7.1445 15.02
rtibia 24.7279
rfoot -15.913 -3.72558
rtoes 5.41793
lfemur -1.04 -2.07573 -21.4047
ltibia 13.8455
lfoot -10.5366 3.73976
ltoes -11.3862
271
root -0.00618537 17.9915 -1.0959 1.85818 -7.92443 1.24835
lowerback -1.86004 -0.620287 -3.40175
upperback 0.30791 -0.768247 1.49974
thorax 1.42519 -0.418153 3.42785
lowerneck -17.6515 -0.66314 -8.71303
upperneck 29.9351 0.72929 3.39965
head 12.9051 -0.235977 2.9317
rclavicle -2.95816e-014 9.54166e-015
rhumerus -6.42117 46.3791 -72.7876
rradius 118.417
rwrist 39.023
rhand 7.11837 21.7381
rfingers 7.12502
rthumb 32.3884 -5.38921
lclavicle -2.95816e-014 9.54166e-015
lhumerus -34.1269 -26.4113 100.845
lradius 86.2448
lwrist 6.74549
lhand -16.9955 19.9944
lfingers 7.12502
lthumb 9.23964 49.7719
rfemur -7.89456 7.09292 15.0054
rtibia 24.7031
rfoot -15.9646 -3.74885
rtoes 5.44217
lfemur -1.10499 -2.06951 -21.4137
ltibia 13.8966
lfoot -10.5563 3.68887
ltoes -11.673
272
root -0.0060823 17.9929 -1.09457 1.87787 -7.87894 1.19896
lowerback -1.69257 -0.634311 -3.42477
upperback 0.140287 -0.793571 1.56841
thorax 1.16238 -0.423285 3.51356
lowerneck -17.4548 -0.633063 -8.72854
upperneck 29.9654 0.775068 3.34408
head 12.8736 -0.226548 2.91838
rclavicle -3.17931e-014 -2.38542e-015
rhumerus -6.80625 46.4056 -72.9766
rradius 118.427
rwrist 38.3853
rhand 6.81765 22.5
rfingers 7.12502
rthumb 32.1021 -4.68539
lclavicle -3.17931e-014 -2.38542e-015
lhumerus -34.4448 -26.2079 101.049
lradius 86.3594
lwrist 6.63278
lhand -16.7517 20.0354
lfingers 7.12502
lthumb 9.47496 49.8024
rfemur -7.88191 7.06575 15.058
rtibia 24.6995
rfoot -15.9717 -3.74352
rtoes 5.41978
lfemur -1.11534 -2.05424 -21.3565
ltibia 13.8897
lfoot -10.5236 3.64022
ltoes -11.7689
273
root -0.00715632 17.9921 -1.093 1.8377 -7.91127 1.16834
lowerback -1.68232 -0.618558 -3.41815
upperback 0.143626 -0.773107 1.57868
thorax 1.15834 -0.413018 3.52112
lowerneck -17.3718 -0.620581 -8.7339
upperneck 29.9208 0.7802 3.36173
head 12.8369 -0.221211 2.92487
rclavicle 2.96935e-014 1.07344e-014
rhumerus -6.85725 46.2952 -72.9775
rradius 118.546
rwrist 37.9189
rhand 6.83441 22.6327
rfingers 7.12502
rthumb 32.1181 -4.54952
lclavicle 2.96935e-014 1.07344e-014
lhumerus -34.4652 -26.1023 101.084
lradius 86.4149
lwrist 6.54011
lhand -16.5483 20.0627
lfingers 7.12502
lthumb 9.67119 49.8207
rfemur -7.84365 7.10138 15.1006
rtibia 24.7155
rfoot -15.9874 -3.73967
rtoes 5.20958
lfemur -1.03872 -2.05001 -21.3288
ltibia 13.8467
lfoot -10.4945 3.66269
ltoes -11.8821
